<svg viewBox="0 0 200 200" xmlns="http://www.w3.org/2000/svg">
  <defs>
    <radialGradient id="ball" cx="38%" cy="32%" r="58%">
      <stop offset="0%" stop-color="#ffffff"/>
      <stop offset="45%" stop-color="#f0f0f0"/>
      <stop offset="100%" stop-color="#999"/>
    </radialGradient>
    <radialGradient id="shine" cx="50%" cy="50%" r="50%">
      <stop offset="0%" stop-color="#fff" stop-opacity="0.6"/>
      <stop offset="100%" stop-color="#fff" stop-opacity="0"/>
    </radialGradient>
    <clipPath id="c"><circle cx="100" cy="100" r="93"/></clipPath>
  </defs>

  <circle cx="100" cy="100" r="93" fill="url(#ball)"/>

  <g clip-path="url(#c)">
    <g fill="#1a1a1a">
      <polygon points="100,62 135,86 123,128 77,128 65,86"/>
      <polygon points="68,24 40,-10 100,-20 160,-10 132,24"/>
      <polygon points="160,50 195,20 220,80 200,150 172,102"/>
      <polygon points="158,135 200,160 170,220 110,210 118,172"/>
      <polygon points="82,172 90,210 30,220 0,160 42,135"/>
      <polygon points="28,102 0,150 -20,80 5,20 40,50"/>
    </g>

    <g fill="none" stroke="#888" stroke-width="1.2">
      <line x1="100" y1="62" x2="100" y2="40"/>
      <line x1="135" y1="86" x2="155" y2="70"/>
      <line x1="123" y1="128" x2="140" y2="150"/>
      <line x1="77" y1="128" x2="60" y2="150"/>
      <line x1="65" y1="86" x2="45" y2="70"/>
      <line x1="100" y1="40" x2="68" y2="24"/>
      <line x1="100" y1="40" x2="132" y2="24"/>
      <line x1="155" y1="70" x2="160" y2="50"/>
      <line x1="155" y1="70" x2="172" y2="102"/>
      <line x1="140" y1="150" x2="158" y2="135"/>
      <line x1="140" y1="150" x2="118" y2="172"/>
      <line x1="60" y1="150" x2="82" y2="172"/>
      <line x1="60" y1="150" x2="42" y2="135"/>
      <line x1="45" y1="70" x2="28" y2="102"/>
      <line x1="45" y1="70" x2="40" y2="50"/>
      <line x1="132" y1="24" x2="160" y2="50"/>
      <line x1="172" y1="102" x2="158" y2="135"/>
      <line x1="118" y1="172" x2="82" y2="172"/>
      <line x1="42" y1="135" x2="28" y2="102"/>
      <line x1="40" y1="50" x2="68" y2="24"/>
      <line x1="68" y1="24" x2="40" y2="-10"/>
      <line x1="132" y1="24" x2="160" y2="-10"/>
      <line x1="160" y1="50" x2="195" y2="20"/>
      <line x1="172" y1="102" x2="200" y2="150"/>
      <line x1="158" y1="135" x2="200" y2="160"/>
      <line x1="118" y1="172" x2="110" y2="210"/>
      <line x1="82" y1="172" x2="90" y2="210"/>
      <line x1="42" y1="135" x2="0" y2="160"/>
      <line x1="28" y1="102" x2="0" y2="150"/>
      <line x1="40" y1="50" x2="5" y2="20"/>
    </g>
  </g>

  <ellipse cx="72" cy="65" rx="22" ry="18" fill="url(#shine)"/>
  <circle cx="100" cy="100" r="93" fill="none" stroke="#777" stroke-width="1.5"/>
</svg>
